# Blender v2.93.4 OBJ File: 'bolt.blend'
# www.blender.org
mtllib bolt.mtl
o Cube_Cube.001
v 0.246771 -0.093856 0.485863
v 0.028835 0.994071 0.579003
v 0.268700 -0.026447 -0.561347
v 0.042759 1.105651 -0.489476
v -0.042981 -0.151065 0.476112
v -0.260917 0.936862 0.569253
v -0.021052 -0.083656 -0.571097
v -0.246993 1.048442 -0.499227
v 0.309605 -0.273002 -0.330284
v 0.300229 -0.318064 0.212761
v 0.184234 0.169652 0.798176
v 0.077616 0.702432 0.840546
v -0.019626 1.280274 0.339871
v -0.010250 1.325337 -0.203174
v 0.105745 0.837620 -0.788590
v 0.212363 0.304841 -0.830960
v 0.075532 -0.064586 -0.567847
v 0.172116 -0.045517 -0.564597
v -0.053825 1.086581 -0.492726
v -0.150409 1.067512 -0.495977
v -0.184007 0.780411 -0.798340
v -0.077389 0.247632 -0.840710
v 0.010477 -0.375273 0.203011
v 0.019853 -0.330211 -0.340035
v -0.300002 1.268128 -0.212925
v -0.309378 1.223065 0.330121
v -0.212136 0.645223 0.830796
v -0.105518 0.112443 0.788426
v 0.150187 -0.112926 0.482613
v 0.053603 -0.131996 0.479362
v -0.164333 0.955931 0.572503
v -0.067749 0.975001 0.575753
v -0.203418 1.287198 -0.209675
v -0.212794 1.242135 0.333371
v -0.106834 1.306267 -0.206425
v -0.116210 1.261205 0.336621
v 0.213021 -0.292071 -0.333534
v 0.203645 -0.337134 0.209511
v 0.116437 -0.311141 -0.336784
v 0.107061 -0.356204 0.206261
v -0.008934 0.131513 0.791676
v 0.087650 0.150583 0.794926
v -0.115552 0.664293 0.834046
v -0.018968 0.683362 0.837296
v -0.073930 0.148686 -0.362932
v -0.085400 0.093562 0.301353
v -0.204352 0.800413 -0.311103
v -0.215822 0.745289 0.353182
v 0.115779 0.285771 -0.834210
v 0.019195 0.266701 -0.837460
v 0.009161 0.818551 -0.791840
v -0.087423 0.799481 -0.795090
v 0.204352 0.150771 0.311103
v 0.215822 0.205895 -0.353182
v 0.073930 0.802498 0.362932
v 0.085400 0.857622 -0.301353
v -1.612757 -0.038834 -0.346314
v -1.622213 -0.084277 0.201311
v -1.696611 0.380189 -0.312990
v -1.706066 0.334746 0.234635
v -0.866308 0.544125 -0.285051
v -0.782454 0.125102 -0.318374
v -0.791909 0.079659 0.229251
v -0.875763 0.498682 0.262575
v -1.281459 0.462157 -0.299020
v -1.197606 0.043134 -0.332344
v -1.207061 -0.002309 0.215281
v -1.290915 0.416714 0.248605
v -1.489035 0.421173 -0.306005
v -1.405181 0.002150 -0.339329
v -1.414637 -0.043293 0.208296
v -1.498491 0.375730 0.241620
v -0.367302 0.207070 -0.304404
v -0.376758 0.161627 0.243221
v -0.460611 0.580650 0.276544
v -0.451156 0.626093 -0.271081
v -0.658732 0.585109 -0.278066
v -0.574878 0.166086 -0.311389
v -0.584333 0.120643 0.236236
v -0.668187 0.539666 0.269560
v -0.990030 0.084118 -0.325359
v -0.999485 0.038675 0.222266
v -1.083339 0.457698 0.255590
v -1.073883 0.503141 -0.292035
v -0.159726 0.248054 -0.297419
v -0.169182 0.202611 0.250206
v -0.253035 0.621634 0.283529
v -0.243580 0.667077 -0.264096
v 0.304917 -0.295533 -0.058762
v -0.014938 1.302806 0.068348
v 0.015165 -0.352742 -0.068512
v -0.304690 1.245597 0.058598
v -0.208106 1.264667 0.061848
v -0.111522 1.283736 0.065098
v 0.208333 -0.314603 -0.062012
v 0.111749 -0.333672 -0.065262
v -0.079665 0.121124 -0.030790
v -0.210087 0.772851 0.021040
v 0.210087 0.178333 -0.021040
v 0.079665 0.830060 0.030790
v -1.594201 -0.177908 -0.081754
v -1.724623 0.473820 -0.029925
v -0.894319 0.637756 -0.001985
v -0.763898 -0.013972 -0.053814
v -1.309471 0.555788 -0.015955
v -1.179049 -0.095940 -0.067784
v -1.517047 0.514804 -0.022940
v -1.386625 -0.136924 -0.074769
v -0.348746 0.067996 -0.039844
v -0.479168 0.719724 0.011985
v -0.556322 0.027012 -0.046829
v -0.686743 0.678740 0.005000
v -0.971473 -0.054956 -0.060799
v -1.101895 0.596772 -0.008970
v -0.271592 0.760708 0.018970
v -0.141170 0.108980 -0.032859
vt 0.430813 0.538378
vt 0.503919 0.595154
vt 0.434702 0.597925
vt 0.357542 0.595154
vt 0.619696 0.198363
vt 0.619696 0.121153
vt 0.638404 0.121153
vt 0.638404 0.198363
vt 0.523098 0.153596
vt 0.582026 0.077620
vt 0.580143 0.151432
vt 0.582026 0.226804
vt 0.600989 0.801721
vt 0.600989 0.876693
vt 0.582282 0.876693
vt 0.582282 0.801721
vt 0.619696 0.551837
vt 0.638404 0.551837
vt 0.638404 0.619707
vt 0.619696 0.619707
vt 0.600989 0.948120
vt 0.582282 0.948120
vt 0.638404 0.948120
vt 0.619696 0.948120
vt 0.619696 0.876693
vt 0.638404 0.876693
vt 0.619696 0.051880
vt 0.638404 0.051880
vt 0.638404 0.999872
vt 0.619696 0.999872
vt 0.600989 0.121153
vt 0.600989 0.051880
vt 0.600989 0.999872
vt 0.582282 0.121153
vt 0.582282 0.051880
vt 0.582282 0.999872
vt 0.582282 0.551837
vt 0.600989 0.551837
vt 0.600989 0.619707
vt 0.582282 0.619707
vt 0.582282 0.383690
vt 0.600989 0.383690
vt 0.600989 0.448333
vt 0.582282 0.448333
vt 0.582282 0.500085
vt 0.600989 0.500085
vt 0.619696 0.383690
vt 0.619696 0.448333
vt 0.619696 0.500085
vt 0.638404 0.383690
vt 0.638404 0.448333
vt 0.638404 0.500085
vt 0.600989 0.698217
vt 0.582282 0.698217
vt 0.638404 0.698217
vt 0.619696 0.698217
vt 0.638404 0.801721
vt 0.619696 0.801721
vt 0.357957 0.301362
vt 0.435089 0.242430
vt 0.509353 0.300334
vt 0.429249 0.301656
vt 0.281822 0.159524
vt 0.284912 0.076124
vt 0.343251 0.150504
vt 0.283747 0.226558
vt 0.320651 0.263629
vt 0.386907 0.196741
vt 0.357789 0.002685
vt 0.431051 0.061408
vt 0.040333 0.252152
vt 0.040333 0.333557
vt 0.000128 0.333557
vt 0.000128 0.252152
vt 0.435884 0.000128
vt 0.508196 0.003101
vt 0.479335 0.107253
vt 0.545289 0.040720
vt 0.619696 0.301867
vt 0.638404 0.301867
vt 0.582282 0.301867
vt 0.600989 0.301867
vt 0.582282 0.198363
vt 0.600989 0.198363
vt 0.284354 0.375589
vt 0.341284 0.448849
vt 0.284354 0.521966
vt 0.281822 0.440182
vt 0.425411 0.301912
vt 0.503919 0.302400
vt 0.430813 0.359321
vt 0.357542 0.302400
vt 0.320948 0.338994
vt 0.386049 0.404085
vt 0.577107 0.375589
vt 0.520341 0.448850
vt 0.475577 0.493614
vt 0.575822 0.450550
vt 0.577107 0.521966
vt 0.540513 0.558560
vt 0.040333 0.195279
vt 0.000128 0.195279
vt 0.040334 0.057001
vt 0.040334 0.138406
vt 0.000128 0.138406
vt 0.000128 0.057001
vt 0.040334 0.000128
vt 0.000128 0.000128
vt 0.052316 0.390686
vt 0.052316 0.517298
vt 0.000128 0.494694
vt 0.000128 0.413290
vt 0.201155 0.000128
vt 0.201155 0.057001
vt 0.160950 0.057001
vt 0.160950 0.000128
vt 0.201155 0.138406
vt 0.160950 0.138406
vt 0.201155 0.195279
vt 0.201155 0.252152
vt 0.160950 0.252152
vt 0.160950 0.195279
vt 0.201155 0.333557
vt 0.160950 0.333557
vt 0.120744 0.000128
vt 0.120744 0.057001
vt 0.080539 0.057001
vt 0.080539 0.000128
vt 0.120744 0.138406
vt 0.080539 0.138406
vt 0.120744 0.195279
vt 0.120744 0.252152
vt 0.080539 0.252152
vt 0.080539 0.195279
vt 0.120744 0.333557
vt 0.080539 0.333557
vt 0.281566 0.252152
vt 0.281566 0.333557
vt 0.241361 0.333557
vt 0.241361 0.252152
vt 0.281566 0.195279
vt 0.241361 0.195279
vt 0.281566 0.057001
vt 0.281566 0.138406
vt 0.241361 0.138406
vt 0.241361 0.057001
vt 0.281566 0.000128
vt 0.241361 0.000128
vt 0.496223 0.159504
vt 0.471062 0.115710
vt 0.440768 0.214810
vt 0.370038 0.144570
vt 0.395169 0.188293
vt 0.425397 0.089130
vt 0.160950 0.390430
vt 0.120744 0.390430
vt 0.241361 0.390430
vt 0.201155 0.390430
vt 0.281566 0.390430
vt 0.080539 0.390430
vt 0.040333 0.390430
vt 0.104505 0.413290
vt 0.104505 0.494694
vt 0.000128 0.390430
vt 0.582282 0.000128
vt 0.600989 0.000128
vt 0.619696 0.000128
vt 0.638404 0.000128
vn -0.9805 -0.1936 -0.0330
vn 0.1207 -0.7265 0.6764
vn 0.9805 0.1936 0.0330
vn 0.1526 -0.6456 -0.7483
vn -0.1272 0.7543 -0.6441
vn 0.1482 -0.6192 -0.7711
vn 0.1321 -0.7744 0.6187
vn 0.1956 -0.9776 -0.0777
vn -0.1553 0.6617 0.7335
vn -0.1956 0.9776 0.0777
vn -0.1252 0.7458 -0.6543
vn 0.0172 0.0827 -0.9964
vn -0.0172 -0.0827 0.9964
vn -0.1465 0.6093 0.7793
vn -0.1864 0.8642 0.4674
vn 0.1864 -0.8642 -0.4674
vn 0.8371 -0.5220 -0.1638
vn 0.6816 0.1925 -0.7060
vn 0.5637 0.7986 0.2109
vn 0.6564 0.0716 0.7510
vn 0.5683 0.8208 -0.0570
vn 0.8324 -0.5442 0.1041
vn 0.1727 -0.9299 0.3247
vn -0.1727 0.9299 -0.3247
usemtl Material.001
s off
f 56/1/1 14/2/1 4/3/1 15/4/1
f 52/5/2 20/6/2 8/7/2 21/8/2
f 48/9/3 26/10/3 6/11/3 27/12/3
f 44/13/4 32/14/4 2/15/4 12/16/4
f 40/17/5 23/18/5 5/19/5 30/20/5
f 36/21/6 13/22/6 2/15/6 32/14/6
f 26/23/6 34/24/6 31/25/6 6/26/6
f 34/24/6 36/21/6 32/14/6 31/25/6
f 8/7/7 20/6/7 33/27/7 25/28/7
f 92/29/8 93/30/8 34/24/8 26/23/8
f 20/6/7 19/31/7 35/32/7 33/27/7
f 93/30/8 94/33/8 36/21/8 34/24/8
f 19/31/7 4/34/7 14/35/7 35/32/7
f 94/33/8 90/36/8 13/22/8 36/21/8
f 10/37/5 38/38/5 29/39/5 1/40/5
f 38/38/5 40/17/5 30/20/5 29/39/5
f 3/41/9 18/42/9 37/43/9 9/44/9
f 89/45/10 95/46/10 38/38/10 10/37/10
f 18/42/9 17/47/9 39/48/9 37/43/9
f 95/46/10 96/49/10 40/17/10 38/38/10
f 17/47/9 7/50/9 24/51/9 39/48/9
f 96/49/10 91/52/10 23/18/10 40/17/10
f 29/39/11 42/53/11 11/54/11 1/40/11
f 42/53/12 44/13/12 12/16/12 11/54/12
f 5/19/11 28/55/11 41/56/11 30/20/11
f 30/20/11 41/56/11 42/53/11 29/39/11
f 28/55/12 27/57/12 43/58/12 41/56/12
f 41/56/12 43/58/12 44/13/12 42/53/12
f 27/57/4 6/26/4 31/25/4 43/58/4
f 43/58/4 31/25/4 32/14/4 44/13/4
f 23/59/3 46/60/3 28/61/3 5/62/3
f 46/60/3 48/9/3 27/12/3 28/61/3
f 7/63/3 22/64/3 45/65/3 24/66/3
f 91/67/3 97/68/3 46/60/3 23/59/3
f 22/64/3 21/69/3 47/70/3 45/65/3
f 70/71/13 69/72/13 59/73/13 57/74/13
f 21/69/3 8/75/3 25/76/3 47/70/3
f 98/77/3 92/78/3 26/10/3 48/9/3
f 17/47/14 50/79/14 22/80/14 7/50/14
f 50/79/13 52/5/13 21/8/13 22/80/13
f 3/41/14 16/81/14 49/82/14 18/42/14
f 18/42/14 49/82/14 50/79/14 17/47/14
f 16/81/13 15/83/13 51/84/13 49/82/13
f 49/82/13 51/84/13 52/5/13 50/79/13
f 15/83/2 4/34/2 19/31/2 51/84/2
f 51/84/2 19/31/2 20/6/2 52/5/2
f 9/85/1 54/86/1 16/87/1 3/88/1
f 54/86/1 56/1/1 15/4/1 16/87/1
f 1/89/1 11/90/1 53/91/1 10/92/1
f 89/93/1 99/94/1 54/86/1 9/85/1
f 11/90/1 12/95/1 55/96/1 53/91/1
f 99/94/1 100/97/1 56/1/1 54/86/1
f 12/95/1 2/98/1 13/99/1 55/96/1
f 100/97/1 90/100/1 14/2/1 56/1/1
f 108/101/15 70/71/15 57/74/15 101/102/15
f 72/103/12 71/104/12 58/105/12 60/106/12
f 107/107/16 72/103/16 60/106/16 102/108/16
f 101/109/3 102/110/3 60/111/3 58/112/3
f 112/113/16 80/114/16 64/115/16 103/116/16
f 80/114/12 79/117/12 63/118/12 64/115/12
f 111/119/15 78/120/15 62/121/15 104/122/15
f 78/120/13 77/123/13 61/124/13 62/121/13
f 114/125/16 83/126/16 68/127/16 105/128/16
f 83/126/12 82/129/12 67/130/12 68/127/12
f 113/131/15 81/132/15 66/133/15 106/134/15
f 81/132/13 84/135/13 65/136/13 66/133/13
f 105/128/16 68/127/16 72/103/16 107/107/16
f 68/127/12 67/130/12 71/104/12 72/103/12
f 106/134/15 66/133/15 70/71/15 108/101/15
f 66/133/13 65/136/13 69/72/13 70/71/13
f 85/137/13 88/138/13 76/139/13 73/140/13
f 116/141/15 85/137/15 73/140/15 109/142/15
f 87/143/12 86/144/12 74/145/12 75/146/12
f 115/147/16 87/143/16 75/146/16 110/148/16
f 73/140/13 76/139/13 77/123/13 78/120/13
f 109/142/15 73/140/15 78/120/15 111/119/15
f 75/146/12 74/145/12 79/117/12 80/114/12
f 110/148/16 75/146/16 80/114/16 112/113/16
f 62/121/13 61/124/13 84/135/13 81/132/13
f 104/122/15 62/121/15 81/132/15 113/131/15
f 64/115/12 63/118/12 82/129/12 83/126/12
f 103/116/16 64/115/16 83/126/16 114/125/16
f 98/77/17 48/9/17 87/149/17 115/150/17
f 48/9/18 46/60/18 86/151/18 87/149/18
f 97/68/19 45/65/19 85/152/19 116/153/19
f 45/65/20 47/70/20 88/154/20 85/152/20
f 46/60/21 97/68/21 116/153/21 86/151/21
f 47/70/22 98/77/22 115/150/22 88/154/22
f 61/124/23 103/155/23 114/156/23 84/135/23
f 63/118/24 104/122/24 113/131/24 82/129/24
f 76/139/23 110/157/23 112/158/23 77/123/23
f 74/145/24 109/142/24 111/119/24 79/117/24
f 88/138/23 115/159/23 110/157/23 76/139/23
f 86/144/24 116/141/24 109/142/24 74/145/24
f 67/130/24 106/134/24 108/101/24 71/104/24
f 65/136/23 105/160/23 107/161/23 69/72/23
f 82/129/24 113/131/24 106/134/24 67/130/24
f 84/135/23 114/156/23 105/160/23 65/136/23
f 79/117/24 111/119/24 104/122/24 63/118/24
f 77/123/23 112/158/23 103/155/23 61/124/23
f 57/162/3 59/163/3 102/110/3 101/109/3
f 69/72/23 107/161/23 102/164/23 59/73/23
f 71/104/24 108/101/24 101/102/24 58/105/24
f 55/96/1 13/99/1 90/100/1 100/97/1
f 53/91/1 55/96/1 100/97/1 99/94/1
f 10/92/1 53/91/1 99/94/1 89/93/1
f 47/70/3 25/76/3 92/78/3 98/77/3
f 24/66/3 45/65/3 97/68/3 91/67/3
f 39/48/10 24/51/10 91/52/10 96/49/10
f 37/43/10 39/48/10 96/49/10 95/46/10
f 9/44/10 37/43/10 95/46/10 89/45/10
f 35/32/8 14/35/8 90/165/8 94/166/8
f 33/27/8 35/32/8 94/166/8 93/167/8
f 25/28/8 33/27/8 93/167/8 92/168/8
